name C:\Users\u0150099\Documents\master_thesis\3dpredictsim\Results\debug\Fal_s1_mtjc3_sc_cspx10_oy2_MTc2_MTPm_k1_d01_MTJm_nl_MG_exp5_table_d01_PF_Natali2010_x5_ls146_ig21.mot
datacolumns 128
datarows 4
range 0.52592118 0.55747645
endheader
time	pelvis_tilt	pelvis_list	pelvis_rotation	pelvis_tx	pelvis_ty	pelvis_tz	hip_flexion_l	hip_adduction_l	hip_rotation_l	hip_flexion_r	hip_adduction_r	hip_rotation_r	knee_angle_l	knee_angle_r	ankle_angle_l	ankle_angle_r	subtalar_angle_l	subtalar_angle_r	mtj_angle_l	mtj_angle_r	mtp_angle_l	mtp_angle_r	lumbar_extension	lumbar_bending	lumbar_rotation	arm_flex_l	arm_add_l	arm_rot_l	arm_flex_r	arm_add_r	arm_rot_r	elbow_flex_l	elbow_flex_r	pro_sup_l	pro_sup_r	glut_med1_l/activation	glut_med2_l/activation	glut_med3_l/activation	glut_min1_l/activation	glut_min2_l/activation	glut_min3_l/activation	semimem_l/activation	semiten_l/activation	bifemlh_l/activation	bifemsh_l/activation	sar_l/activation	add_long_l/activation	add_brev_l/activation	add_mag1_l/activation	add_mag2_l/activation	add_mag3_l/activation	tfl_l/activation	pect_l/activation	grac_l/activation	glut_max1_l/activation	glut_max2_l/activation	glut_max3_l/activation	iliacus_l/activation	psoas_l/activation	quad_fem_l/activation	gem_l/activation	peri_l/activation	rect_fem_l/activation	vas_med_l/activation	vas_int_l/activation	vas_lat_l/activation	med_gas_l/activation	lat_gas_l/activation	soleus_l/activation	tib_post_l/activation	flex_dig_l/activation	flex_hal_l/activation	tib_ant_l/activation	per_brev_l/activation	per_long_l/activation	per_tert_l/activation	ext_dig_l/activation	ext_hal_l/activation	ercspn_l/activation	intobl_l/activation	extobl_l/activation	glut_med1_r/activation	glut_med2_r/activation	glut_med3_r/activation	glut_min1_r/activation	glut_min2_r/activation	glut_min3_r/activation	semimem_r/activation	semiten_r/activation	bifemlh_r/activation	bifemsh_r/activation	sar_r/activation	add_long_r/activation	add_brev_r/activation	add_mag1_r/activation	add_mag2_r/activation	add_mag3_r/activation	tfl_r/activation	pect_r/activation	grac_r/activation	glut_max1_r/activation	glut_max2_r/activation	glut_max3_r/activation	iliacus_r/activation	psoas_r/activation	quad_fem_r/activation	gem_r/activation	peri_r/activation	rect_fem_r/activation	vas_med_r/activation	vas_int_r/activation	vas_lat_r/activation	med_gas_r/activation	lat_gas_r/activation	soleus_r/activation	tib_post_r/activation	flex_dig_r/activation	flex_hal_r/activation	tib_ant_r/activation	per_brev_r/activation	per_long_r/activation	per_tert_r/activation	ext_dig_r/activation	ext_hal_r/activation	ercspn_r/activation	intobl_r/activation	extobl_r/activation	
          0.52592118	         -2.92907520	          1.02790606	         -2.36177244	          0.69947517	          0.90912320	          0.00278657	         29.00177599	          2.47138466	         -1.55498569	        -17.60923143	          1.86770674	          8.84969243	        -10.32924421	         -6.70569130	          8.65388277	          7.71546807	          1.74866781	          4.22514924	          2.28399551	         -1.01187911	         -7.24828232	         12.11486133	         -3.64702759	         -0.33000842	          1.94993957	         -5.42970605	        -13.47120567	          5.15883935	          4.55901583	        -13.73104364	         19.38118224	         25.94000194	         31.48084380	         86.51662706	         86.51662706	          0.05000038	          0.05000314	          0.05000137	          0.05003806	          0.05000584	          0.05000137	          0.13036559	          0.06016760	          0.31862094	          0.05000070	          0.05000068	          0.15090433	          0.15616251	          0.15556017	          0.13578844	          0.10351722	          0.05000050	          0.05001197	          0.11157329	          0.05003879	          0.05082184	          0.07144815	          0.05000042	          0.05000074	          0.12792373	          0.05001134	          0.05000100	          0.05000893	          0.05454408	          0.05547163	          0.05001823	          0.06805187	          0.05000017	          0.05161203	          0.05000055	          0.09540472	          0.06533791	          0.28446625	          0.07866810	          0.05259417	          0.30645013	          0.59578861	          0.23701666	          0.06906729	          0.08454783	          0.11213133	          0.41690958	          0.09540601	          0.06380312	          0.55414632	          0.25282559	          0.10386261	          0.05000175	          0.05000025	          0.05000017	          0.09341770	          0.11212999	          0.05000015	          0.05000018	          0.05000036	          0.05000110	          0.05000067	          0.60716393	          0.05000081	          0.05000069	          0.05001678	          0.05000267	          0.05000135	          0.32758079	          0.75593719	          0.05000027	          0.05000116	          0.05876527	          0.23518001	          0.05000045	          0.05000042	          0.05000040	          0.40473311	          0.48403090	          0.35577885	          0.40442936	          0.22928437	          0.43232224	          0.05000002	          0.05000074	          0.19718876	          0.05000012	          0.05876541	          0.11722182	          0.05000002	          0.05000003	          0.05000003	
          0.53643960	         -2.93017648	          1.11550688	         -2.60025329	          0.71573395	          0.90891701	          0.00255127	         28.51815311	          2.82221233	         -1.50318307	        -17.54030041	          1.63173399	          8.73336220	        -10.07961814	         -8.53049682	          8.36494731	          7.15937023	          1.71044395	          5.04066755	          2.45831929	         -2.03302687	         -7.80722848	         15.11993461	         -3.49076610	         -0.53122294	          2.05767749	         -6.09209488	        -13.45097097	          4.78386726	          4.23391317	        -13.67670780	         19.31159452	         25.53044306	         32.62863764	         86.51662706	         86.51662706	          0.05876551	          0.05000063	          0.05000035	          0.05000089	          0.05000084	          0.05000153	          0.11905171	          0.05876566	          0.29347184	          0.05000055	          0.05000031	          0.12839602	          0.15981082	          0.15760974	          0.15151558	          0.12958389	          0.05874807	          0.05877170	          0.10833797	          0.05000091	          0.06683229	          0.09581889	          0.05000020	          0.05000018	          0.20257487	          0.05000077	          0.05000102	          0.05000008	          0.06719346	          0.06998179	          0.05822077	          0.06838499	          0.05750876	          0.05564970	          0.05000018	          0.08117494	          0.07403885	          0.31511989	          0.06693421	          0.07629399	          0.38560417	          0.63020179	          0.37739606	          0.05876536	          0.07193682	          0.09540601	          0.36861915	          0.08117540	          0.05428635	          0.47149105	          0.21511455	          0.08837064	          0.05000129	          0.05000022	          0.05000014	          0.07948367	          0.09540501	          0.05000083	          0.05000026	          0.05000029	          0.05000097	          0.05000082	          0.51660379	          0.05000136	          0.05000027	          0.05000111	          0.05000076	          0.05000068	          0.27871938	          0.73712831	          0.05000005	          0.05000017	          0.05000006	          0.20010098	          0.06705071	          0.06205825	          0.05679931	          0.34436373	          0.41183359	          0.30817399	          0.38191626	          0.20666561	          0.41585373	          0.05000000	          0.05876555	          0.16777643	          0.05000011	          0.05000007	          0.09973723	          0.05000001	          0.05000002	          0.05000003	
          0.54695803	         -2.92919916	          1.21169246	         -2.82885821	          0.73226339	          0.90878532	          0.00229155	         28.03657136	          3.15594085	         -1.42101866	        -17.36942638	          1.37427325	          8.58467610	        -10.41538967	        -10.49150151	          7.78113426	          6.38344286	          1.69852580	          5.93299400	          2.62517505	         -3.12830983	         -8.28355676	         18.37042441	         -3.31850807	         -0.74383051	          2.15818842	         -6.77692688	        -13.45343968	          4.58974353	          3.83269755	        -13.62931136	         19.20659496	         25.13895024	         33.81494370	         86.51662706	         86.51662706	          0.05000020	          0.05000024	          0.05000202	          0.05000020	          0.05000029	          0.05000023	          0.10129417	          0.05000036	          0.24969815	          0.05119748	          0.06906779	          0.10924478	          0.13597376	          0.33480169	          0.22236734	          0.14584107	          0.05000019	          0.05000638	          0.09217872	          0.05876366	          0.05876495	          0.12337264	          0.06859922	          0.06906724	          0.53126499	          0.12223080	          0.07100241	          0.06906730	          0.12877320	          0.14282074	          0.12098700	          0.06906759	          0.06907194	          0.06906724	          0.05000006	          0.06906746	          0.06906742	          0.35284352	          0.13583437	          0.06491416	          0.48069922	          0.65604730	          0.32110429	          0.05000002	          0.06120684	          0.08117540	          0.31363655	          0.06906742	          0.05165758	          0.40116425	          0.18302842	          0.07518944	          0.05000326	          0.05000040	          0.05000075	          0.06762802	          0.08117468	          0.09820599	          0.15234190	          0.05014484	          0.05000865	          0.05002115	          0.53232307	          0.07514648	          0.05000251	          0.05000133	          0.05000095	          0.05000127	          0.23714604	          0.66926334	          0.05000051	          0.05876628	          0.05876539	          0.17025434	          0.14738296	          0.15489044	          0.13705534	          0.29299895	          0.35040511	          0.26220721	          0.33636539	          0.17583990	          0.35382613	          0.05000000	          0.05000020	          0.14275117	          0.05000005	          0.05000002	          0.08486061	          0.05000021	          0.06906733	          0.05897973	
          0.55747645	         -2.92696117	          1.33293420	         -3.04588260	          0.74900961	          0.90869531	          0.00203766	         27.51022053	          3.42288871	         -1.26901424	        -17.11017920	          1.08485042	          8.39973272	        -11.15495795	        -12.53695197	          6.91077490	          5.32599443	          1.69763250	          6.84338374	          2.71501402	         -4.27279179	         -8.71635783	         21.84009645	         -3.13399815	         -0.98411097	          2.24762486	         -7.47034511	        -13.48337378	          4.55656043	          3.36375084	        -13.58765544	         19.08676536	         24.75145852	         35.04299277	         86.51662706	         86.51662706	          0.32270756	          0.05000011	          0.40036586	          0.05000043	          0.05000022	          0.29762548	          0.11336176	          0.05000026	          0.21719689	          0.05000014	          0.05876587	          0.09295014	          0.32032530	          0.28486341	          0.22190300	          0.22945959	          0.05000032	          0.06577306	          0.14148203	          0.05000009	          0.05000009	          0.21898368	          0.05876541	          0.05876538	          0.45202234	          0.10399912	          0.13858656	          0.05876535	          0.12927838	          0.14325077	          0.10308720	          0.05876558	          0.05876930	          0.05876537	          0.05000022	          0.05876549	          0.05876549	          0.39162321	          0.11557384	          0.05523172	          0.40899927	          0.77149465	          0.27362311	          0.05000006	          0.05207739	          0.06906740	          0.28184446	          0.05876544	          0.05000019	          0.34132738	          0.15572821	          0.06397432	          0.05000103	          0.05000044	          0.05000040	          0.05754076	          0.06906692	          0.15711188	          0.18771600	          0.05876503	          0.05018925	          0.05000268	          0.55861025	          0.06906722	          0.05002331	          0.05290462	          0.05379781	          0.05012401	          0.20177373	          0.65072895	          0.05876512	          0.05000120	          0.05000007	          0.14485948	          0.12539977	          0.13178738	          0.11661252	          0.24929566	          0.29813921	          0.22309677	          0.28619366	          0.14961191	          0.30105005	          0.05000006	          0.05000007	          0.14413740	          0.05000004	          0.05000006	          0.07220295	          0.07392952	          0.05876535	          0.05825870	
